<mxfile host="app.diagrams.net" modified="2021-12-26T21:56:45.256Z" agent="5.0 (Windows NT 10.0; Win64; x64) AppleWebKit/537.36 (KHTML, like Gecko) Chrome/96.0.4664.110 Safari/537.36" etag="auV2PZtwS-8OsbHpOcLA" version="15.9.6" type="github">
  <diagram id="lpA4NpFH1Wmw4PAcMe0r" name="Page-1">
    <mxGraphModel dx="1483" dy="781" grid="1" gridSize="10" guides="1" tooltips="1" connect="1" arrows="1" fold="1" page="1" pageScale="1" pageWidth="850" pageHeight="1100" math="0" shadow="0">
      <root>
        <mxCell id="0" />
        <mxCell id="1" parent="0" />
        <mxCell id="SVobsBo-4MXi9FOcV08F-37" value="&lt;p style=&quot;margin: 0px ; margin-top: 4px ; text-align: center&quot;&gt;&lt;i&gt;&amp;lt;&amp;lt;Interface&amp;gt;&amp;gt;&lt;/i&gt;&lt;br&gt;&lt;b&gt;Wallet&lt;/b&gt;&lt;/p&gt;&lt;hr size=&quot;1&quot;&gt;&lt;p style=&quot;margin: 0px ; margin-left: 4px&quot;&gt;+ getSpotWallet():: Map&amp;lt;String, int&amp;gt;&lt;br&gt;&lt;/p&gt;&lt;p style=&quot;margin: 0px ; margin-left: 4px&quot;&gt;&lt;br&gt;&lt;/p&gt;&lt;p style=&quot;margin: 0px ; margin-left: 4px&quot;&gt;+ addCoinToWallet() : bool&lt;/p&gt;&lt;p style=&quot;margin: 0px ; margin-left: 4px&quot;&gt;&lt;br&gt;&lt;/p&gt;&lt;p style=&quot;margin: 0px ; margin-left: 4px&quot;&gt;+ removeCoinFromWallet() : bool&lt;/p&gt;" style="verticalAlign=top;align=left;overflow=fill;fontSize=12;fontFamily=Helvetica;html=1;" parent="1" vertex="1">
          <mxGeometry x="10" y="20" width="220" height="140" as="geometry" />
        </mxCell>
        <mxCell id="SVobsBo-4MXi9FOcV08F-38" value="" style="endArrow=block;dashed=1;endFill=0;endSize=12;html=1;rounded=0;entryX=1;entryY=0.429;entryDx=0;entryDy=0;entryPerimeter=0;" parent="1" edge="1" target="SVobsBo-4MXi9FOcV08F-37">
          <mxGeometry width="160" relative="1" as="geometry">
            <mxPoint x="290" y="210" as="sourcePoint" />
            <mxPoint x="220" y="220" as="targetPoint" />
          </mxGeometry>
        </mxCell>
        <mxCell id="SVobsBo-4MXi9FOcV08F-46" value="&lt;&lt;abstract&gt;&gt;&#xa;User" style="swimlane;fontStyle=1;align=center;verticalAlign=top;childLayout=stackLayout;horizontal=1;startSize=40;horizontalStack=0;resizeParent=1;resizeParentMax=0;resizeLast=0;collapsible=1;marginBottom=0;" parent="1" vertex="1">
          <mxGeometry x="570" y="20" width="250" height="100" as="geometry" />
        </mxCell>
        <mxCell id="SVobsBo-4MXi9FOcV08F-47" value="+ email: String&#xa;&#xa;" style="text;strokeColor=none;fillColor=none;align=left;verticalAlign=top;spacingLeft=4;spacingRight=4;overflow=hidden;rotatable=0;points=[[0,0.5],[1,0.5]];portConstraint=eastwest;" parent="SVobsBo-4MXi9FOcV08F-46" vertex="1">
          <mxGeometry y="40" width="250" height="26" as="geometry" />
        </mxCell>
        <mxCell id="SVobsBo-4MXi9FOcV08F-48" value="" style="line;strokeWidth=1;fillColor=none;align=left;verticalAlign=middle;spacingTop=-1;spacingLeft=3;spacingRight=3;rotatable=0;labelPosition=right;points=[];portConstraint=eastwest;" parent="SVobsBo-4MXi9FOcV08F-46" vertex="1">
          <mxGeometry y="66" width="250" height="8" as="geometry" />
        </mxCell>
        <mxCell id="SVobsBo-4MXi9FOcV08F-49" value="+ getEmail(): void" style="text;strokeColor=none;fillColor=none;align=left;verticalAlign=top;spacingLeft=4;spacingRight=4;overflow=hidden;rotatable=0;points=[[0,0.5],[1,0.5]];portConstraint=eastwest;" parent="SVobsBo-4MXi9FOcV08F-46" vertex="1">
          <mxGeometry y="74" width="250" height="26" as="geometry" />
        </mxCell>
        <mxCell id="Wz9P-31-FX5qm2-tz6ir-1" value="name" style="endArrow=block;endFill=1;html=1;edgeStyle=orthogonalEdgeStyle;align=left;verticalAlign=top;rounded=0;startArrow=none;" edge="1" parent="1" source="SVobsBo-4MXi9FOcV08F-32" target="SVobsBo-4MXi9FOcV08F-49">
          <mxGeometry x="-1" relative="1" as="geometry">
            <mxPoint x="440" y="210" as="sourcePoint" />
            <mxPoint x="590" y="130" as="targetPoint" />
            <Array as="points">
              <mxPoint x="440" y="110" />
            </Array>
          </mxGeometry>
        </mxCell>
        <mxCell id="Wz9P-31-FX5qm2-tz6ir-3" value="SystemClass" style="swimlane;fontStyle=1;align=center;verticalAlign=top;childLayout=stackLayout;horizontal=1;startSize=26;horizontalStack=0;resizeParent=1;resizeParentMax=0;resizeLast=0;collapsible=1;marginBottom=0;" vertex="1" parent="1">
          <mxGeometry x="305" y="500" width="265" height="198" as="geometry" />
        </mxCell>
        <mxCell id="Wz9P-31-FX5qm2-tz6ir-4" value="# trader: Trader&#xa;&#xa;# all_coins: Map&lt;String, Map&lt;String, String&gt;&gt;" style="text;strokeColor=none;fillColor=none;align=left;verticalAlign=top;spacingLeft=4;spacingRight=4;overflow=hidden;rotatable=0;points=[[0,0.5],[1,0.5]];portConstraint=eastwest;fontStyle=4" vertex="1" parent="Wz9P-31-FX5qm2-tz6ir-3">
          <mxGeometry y="26" width="265" height="54" as="geometry" />
        </mxCell>
        <mxCell id="Wz9P-31-FX5qm2-tz6ir-5" value="" style="line;strokeWidth=1;fillColor=none;align=left;verticalAlign=middle;spacingTop=-1;spacingLeft=3;spacingRight=3;rotatable=0;labelPosition=right;points=[];portConstraint=eastwest;" vertex="1" parent="Wz9P-31-FX5qm2-tz6ir-3">
          <mxGeometry y="80" width="265" height="8" as="geometry" />
        </mxCell>
        <mxCell id="Wz9P-31-FX5qm2-tz6ir-6" value="# signIn(String, String): bool&#xa;&#xa;# signOut(String, String) : bool&#xa;&#xa;# signUp(String, String, String) : bool&#xa;&#xa;- setTrader(Trader) : bool" style="text;strokeColor=none;fillColor=none;align=left;verticalAlign=top;spacingLeft=4;spacingRight=4;overflow=hidden;rotatable=0;points=[[0,0.5],[1,0.5]];portConstraint=eastwest;" vertex="1" parent="Wz9P-31-FX5qm2-tz6ir-3">
          <mxGeometry y="88" width="265" height="110" as="geometry" />
        </mxCell>
        <mxCell id="Wz9P-31-FX5qm2-tz6ir-9" value="Actor" style="shape=umlActor;verticalLabelPosition=bottom;verticalAlign=top;html=1;" vertex="1" parent="1">
          <mxGeometry x="750" y="550" width="70" height="100" as="geometry" />
        </mxCell>
        <mxCell id="Wz9P-31-FX5qm2-tz6ir-12" value="" style="line;strokeWidth=1;fillColor=none;align=left;verticalAlign=middle;spacingTop=-1;spacingLeft=3;spacingRight=3;rotatable=0;labelPosition=right;points=[];portConstraint=eastwest;" vertex="1" parent="1">
          <mxGeometry x="570" y="600" width="180" height="8" as="geometry" />
        </mxCell>
        <mxCell id="SVobsBo-4MXi9FOcV08F-32" value="Trader" style="swimlane;fontStyle=1;align=center;verticalAlign=top;childLayout=stackLayout;horizontal=1;startSize=26;horizontalStack=0;resizeParent=1;resizeParentMax=0;resizeLast=0;collapsible=1;marginBottom=0;" parent="1" vertex="1">
          <mxGeometry x="230" y="210" width="290" height="230" as="geometry" />
        </mxCell>
        <mxCell id="SVobsBo-4MXi9FOcV08F-33" value="- wallet_address : String&#xa;&#xa;- wallet: Map&lt;String, int&gt;&#xa;&#xa;- balance: int" style="text;strokeColor=none;fillColor=none;align=left;verticalAlign=top;spacingLeft=4;spacingRight=4;overflow=hidden;rotatable=0;points=[[0,0.5],[1,0.5]];portConstraint=eastwest;" parent="SVobsBo-4MXi9FOcV08F-32" vertex="1">
          <mxGeometry y="26" width="290" height="84" as="geometry" />
        </mxCell>
        <mxCell id="SVobsBo-4MXi9FOcV08F-34" value="" style="line;strokeWidth=1;fillColor=none;align=left;verticalAlign=middle;spacingTop=-1;spacingLeft=3;spacingRight=3;rotatable=0;labelPosition=right;points=[];portConstraint=eastwest;" parent="SVobsBo-4MXi9FOcV08F-32" vertex="1">
          <mxGeometry y="110" width="290" height="8" as="geometry" />
        </mxCell>
        <mxCell id="SVobsBo-4MXi9FOcV08F-35" value="+Trader(String, String, String, Map&lt;String, int&gt;, int)&#xa;&#xa;+getWalletAddress(): String&#xa;&#xa;+getBalance() : int&#xa;&#xa;+getWallet() : Map&lt;String, String&gt;" style="text;strokeColor=none;fillColor=none;align=left;verticalAlign=top;spacingLeft=4;spacingRight=4;overflow=hidden;rotatable=0;points=[[0,0.5],[1,0.5]];portConstraint=eastwest;" parent="SVobsBo-4MXi9FOcV08F-32" vertex="1">
          <mxGeometry y="118" width="290" height="112" as="geometry" />
        </mxCell>
      </root>
    </mxGraphModel>
  </diagram>
</mxfile>
